<?xml version="1.0" encoding="UTF-8"?>
<svg width="29px" height="29px" viewBox="0 0 29 29" version="1.1" xmlns="http://www.w3.org/2000/svg" xmlns:xlink="http://www.w3.org/1999/xlink">
    <!-- Generator: Sketch 52.1 (67048) - http://www.bohemiancoding.com/sketch -->
    <title>right-arrow (1)</title>
    <desc>Created with Sketch.</desc>
    <g id="Page-1" stroke="none" stroke-width="1" fill="none" fill-rule="evenodd">
        <g id="Desktop-V2-Copy-3" transform="translate(-1215.000000, -1140.000000)" fill="#D9D5D5">
            <g id="budget-bikes" transform="translate(70.000000, 890.000000)">
                <g id="viewmore" transform="translate(1050.000000, 138.000000)">
                    <g id="but-now-copy" transform="translate(43.000000, 107.000000)">
                        <g id="right-arrow-(1)" transform="translate(52.000000, 5.000000)">
                            <path d="M27.8424641,8.85547222 C26.3135196,5.29088889 23.715366,2.69846895 20.1206928,1.16549673 C18.3245408,0.399318627 16.4420997,0.00796078431 14.476165,0.00796078431 C12.5102304,0.00796078431 10.6420049,0.395622549 8.84751144,1.16549673 C5.2829281,2.69439379 2.6732598,5.28515523 1.14161438,8.85547222 C0.374109477,10.6441846 0,12.5181438 0,14.4840784 C0,16.4503922 0.374109477,18.3398938 1.14161438,20.1289853 C2.6732598,23.6993023 5.2829281,26.3056062 8.84751144,27.8348824 C10.6420049,28.6047565 12.510183,28.9920392 14.476165,28.9920392 C16.4421471,28.9920392 18.3245408,28.6006814 20.1207402,27.8348824 C23.7154134,26.3018627 26.313567,23.6932369 27.8425114,20.1289853 C28.6123382,18.3341601 29,16.4503922 29,14.4840784 C29,12.5181438 28.6123382,10.65025 27.8424641,8.85547222 Z M25.5274395,20.8900931 C24.3895212,22.8421438 22.8301552,24.3907533 20.8658791,25.535732 C18.913781,26.673982 16.7753154,27.2480114 14.476165,27.2480114 C12.7480114,27.2480114 11.0989918,26.9151748 9.52915359,26.2332484 C7.95959967,25.5516536 6.60389706,24.6555915 5.47000654,23.5220801 C4.3364951,22.3882369 3.43403595,21.019598 2.75888562,19.4470588 C2.08610458,17.8802533 1.75999673,16.2126111 1.75999673,14.4841258 C1.75999673,12.1849755 2.32488072,10.056982 3.45635458,8.11033333 C4.59223529,6.1565768 6.15193301,4.60630882 8.10204085,3.46464706 C10.052433,2.32303268 12.1770621,1.75203595 14.4762124,1.75203595 C16.7753627,1.75203595 18.9138284,2.32639706 20.8659265,3.46464706 C22.8302026,4.6096732 24.3858725,6.15989379 25.5274869,8.11033333 C26.6691013,10.0603938 27.240098,12.1850229 27.240098,14.4841258 C27.2400033,16.7832761 26.6727974,18.9257696 25.5274395,20.8900931 Z" id="Shape" fill-rule="nonzero"></path>
                            <path d="M12.7953497,6.11250817 C12.4350768,5.74313725 11.8759739,5.7634183 11.5586797,6.08071242 C11.1940474,6.44534477 11.2139967,6.98013889 11.526884,7.30150817 L18.6143987,14.5795131 L11.526884,21.6666961 C11.1852337,22.0086781 11.2099216,22.5705294 11.526884,22.8878235 C11.7014052,23.0620605 11.9233121,23.1574003 12.1770147,23.1574003 C12.4148431,23.1574003 12.6208284,23.061634 12.7953497,22.8878235 L20.4853725,15.2293121 C20.8279706,14.8883725 20.7985441,14.3136324 20.4853725,13.9926422 L12.7953497,6.11250817 Z" id="Path"></path>
                        </g>
                    </g>
                </g>
            </g>
        </g>
    </g>
</svg>